HIERARCHY
ROOT Hips
{
	OFFSET -14.64140 90.27770 -84.91600
	CHANNELS 6 Xposition Yposition Zposition Zrotation Xrotation Yrotation
	JOINT Spine
	{
		OFFSET 0.00000 13.20850 -1.60436
		CHANNELS 3 Zrotation Xrotation Yrotation
		JOINT Spine1
		{
			OFFSET 0.00000 8.61716 0.00000
			CHANNELS 3 Zrotation Xrotation Yrotation
			JOINT Spine2
			{
				OFFSET 0.00000 8.61717 0.00000
				CHANNELS 3 Zrotation Xrotation Yrotation
				JOINT Spine3
				{
					OFFSET 0.00000 8.61717 0.00000
					CHANNELS 3 Zrotation Xrotation Yrotation
					JOINT Neck
					{
						OFFSET 0.00000 11.07920 1.10792
						CHANNELS 3 Zrotation Xrotation Yrotation
						JOINT Neck1
						{
							OFFSET 0.00000 7.08032 0.00000
							CHANNELS 3 Zrotation Xrotation Yrotation
							JOINT Head
							{
								OFFSET 0.00000 7.08031 0.00000
								CHANNELS 3 Zrotation Xrotation Yrotation
								End site
								{
									OFFSET 0.00000 0.00000 0.00000
								}
							}
						}
					}
					JOINT RightShoulder
					{
						OFFSET -0.01000 7.91373 5.19711
						CHANNELS 3 Zrotation Xrotation Yrotation
						JOINT RightArm
						{
							OFFSET -18.41580 0.00000 0.00000
							CHANNELS 3 Zrotation Xrotation Yrotation
							JOINT RightForeArm
							{
								OFFSET -29.11090 0.00000 0.00000
								CHANNELS 3 Zrotation Xrotation Yrotation
								JOINT RightHand
								{
									OFFSET -24.65040 0.00000 0.00000
									CHANNELS 3 Zrotation Xrotation Yrotation
									JOINT RightHandThumb1
									{
										OFFSET -5.35114 -0.85590 3.97906
										CHANNELS 3 Zrotation Xrotation Yrotation
										JOINT RightHandThumb2
										{
											OFFSET -4.52789 0.00000 0.00000
											CHANNELS 3 Zrotation Xrotation Yrotation
											JOINT RightHandThumb3
											{
												OFFSET -2.46976 0.00000 0.00000
												CHANNELS 3 Zrotation Xrotation Yrotation
												End site
												{
													OFFSET 0.00000 0.00000 0.00000
												}
											}
										}
									}
									JOINT RightHandIndex1
									{
										OFFSET -14.26970 0.00000 2.88139
										CHANNELS 3 Zrotation Xrotation Yrotation
										JOINT RightHandIndex2
										{
											OFFSET -5.48836 0.00000 0.00000
											CHANNELS 3 Zrotation Xrotation Yrotation
											JOINT RightHandIndex3
											{
												OFFSET -3.01859 0.00000 0.00000
												CHANNELS 3 Zrotation Xrotation Yrotation
												End site
												{
													OFFSET 0.00000 0.00000 0.00000
												}
											}
										}
									}
									JOINT RightHandMiddle1
									{
										OFFSET -14.26970 0.00000 -0.09147
										CHANNELS 3 Zrotation Xrotation Yrotation
										JOINT RightHandMiddle2
										{
											OFFSET -6.17441 0.00000 0.00000
											CHANNELS 3 Zrotation Xrotation Yrotation
											JOINT RightHandMiddle3
											{
												OFFSET -3.56743 0.00000 0.00000
												CHANNELS 3 Zrotation Xrotation Yrotation
												End site
												{
													OFFSET 0.00000 0.00000 0.00000
												}
											}
										}
									}
									JOINT RightHandRing1
									{
										OFFSET -12.69180 0.00000 -3.06433
										CHANNELS 3 Zrotation Xrotation Yrotation
										JOINT RightHandRing2
										{
											OFFSET -5.62556 0.00000 0.00000
											CHANNELS 3 Zrotation Xrotation Yrotation
											JOINT RightHandRing3
											{
												OFFSET -3.56744 0.00000 0.00000
												CHANNELS 3 Zrotation Xrotation Yrotation
												End site
												{
													OFFSET 0.00000 0.00000 0.00000
												}
											}
										}
									}
									JOINT RightHandPinky1
									{
										OFFSET -11.11390 0.00000 -6.03719
										CHANNELS 3 Zrotation Xrotation Yrotation
										JOINT RightHandPinky2
										{
											OFFSET -4.52789 0.00000 0.00000
											CHANNELS 3 Zrotation Xrotation Yrotation
											JOINT RightHandPinky3
											{
												OFFSET -2.46976 0.00000 0.00000
												CHANNELS 3 Zrotation Xrotation Yrotation
												End site
												{
													OFFSET 0.00000 0.00000 0.00000
												}
											}
										}
									}
								}
							}
						}
					}
					JOINT LeftShoulder
					{
						OFFSET 0.01000 7.91373 5.19711
						CHANNELS 3 Zrotation Xrotation Yrotation
						JOINT LeftArm
						{
							OFFSET 18.41580 0.00000 0.00000
							CHANNELS 3 Zrotation Xrotation Yrotation
							JOINT LeftForeArm
							{
								OFFSET 29.11090 0.00000 0.00000
								CHANNELS 3 Zrotation Xrotation Yrotation
								JOINT LeftHand
								{
									OFFSET 24.65040 0.00000 0.00000
									CHANNELS 3 Zrotation Xrotation Yrotation
									JOINT LeftHandThumb1
									{
										OFFSET 5.35114 -0.85590 3.97906
										CHANNELS 3 Zrotation Xrotation Yrotation
										JOINT LeftHandThumb2
										{
											OFFSET 4.52789 0.00000 0.00000
											CHANNELS 3 Zrotation Xrotation Yrotation
											JOINT LeftHandThumb3
											{
												OFFSET 2.46977 0.00000 0.00000
												CHANNELS 3 Zrotation Xrotation Yrotation
												End site
												{
													OFFSET 0.00000 0.00000 0.00000
												}
											}
										}
									}
									JOINT LeftHandIndex1
									{
										OFFSET 14.26970 0.00000 2.88139
										CHANNELS 3 Zrotation Xrotation Yrotation
										JOINT LeftHandIndex2
										{
											OFFSET 5.48836 0.00000 0.00000
											CHANNELS 3 Zrotation Xrotation Yrotation
											JOINT LeftHandIndex3
											{
												OFFSET 3.01859 0.00000 0.00000
												CHANNELS 3 Zrotation Xrotation Yrotation
												End site
												{
													OFFSET 0.00000 0.00000 0.00000
												}
											}
										}
									}
									JOINT LeftHandMiddle1
									{
										OFFSET 14.26970 0.00000 -0.09147
										CHANNELS 3 Zrotation Xrotation Yrotation
										JOINT LeftHandMiddle2
										{
											OFFSET 6.17440 0.00000 0.00000
											CHANNELS 3 Zrotation Xrotation Yrotation
											JOINT LeftHandMiddle3
											{
												OFFSET 3.56744 0.00000 0.00000
												CHANNELS 3 Zrotation Xrotation Yrotation
												End site
												{
													OFFSET 0.00000 0.00000 0.00000
												}
											}
										}
									}
									JOINT LeftHandRing1
									{
										OFFSET 12.69180 0.00000 -3.06433
										CHANNELS 3 Zrotation Xrotation Yrotation
										JOINT LeftHandRing2
										{
											OFFSET 5.62556 0.00000 0.00000
											CHANNELS 3 Zrotation Xrotation Yrotation
											JOINT LeftHandRing3
											{
												OFFSET 3.56744 0.00000 0.00000
												CHANNELS 3 Zrotation Xrotation Yrotation
												End site
												{
													OFFSET 0.00000 0.00000 0.00000
												}
											}
										}
									}
									JOINT LeftHandPinky1
									{
										OFFSET 11.11390 0.00000 -6.03719
										CHANNELS 3 Zrotation Xrotation Yrotation
										JOINT LeftHandPinky2
										{
											OFFSET 4.52789 0.00000 0.00000
											CHANNELS 3 Zrotation Xrotation Yrotation
											JOINT LeftHandPinky3
											{
												OFFSET 2.46976 0.00000 0.00000
												CHANNELS 3 Zrotation Xrotation Yrotation
												End site
												{
													OFFSET 0.00000 0.00000 0.00000
												}
											}
										}
									}
								}
							}
						}
					}
					JOINT pCube4
					{
						OFFSET 0.00000 10.91090 1.10792
						CHANNELS 3 Zrotation Xrotation Yrotation
						End site
						{
							OFFSET 0.00000 0.00000 0.00000
						}
					}
				}
			}
		}
	}
	JOINT RightUpLeg
	{
		OFFSET -9.98441 0.00000 0.00000
		CHANNELS 3 Zrotation Xrotation Yrotation
		JOINT RightLeg
		{
			OFFSET 0.00000 -42.11790 0.00000
			CHANNELS 3 Zrotation Xrotation Yrotation
			JOINT RightFoot
			{
				OFFSET 0.00000 -45.00020 -0.00001
				CHANNELS 3 Zrotation Xrotation Yrotation
				JOINT RightForeFoot
				{
					OFFSET 0.00000 -3.74820 0.00000
					CHANNELS 3 Zrotation Xrotation Yrotation
					JOINT RightToeBase
					{
						OFFSET 0.00000 0.06325 14.43120
						CHANNELS 3 Zrotation Xrotation Yrotation
						End site
						{
							OFFSET 0.00000 0.00000 0.00000
						}
					}
				}
			}
		}
	}
	JOINT LeftUpLeg
	{
		OFFSET 9.98441 0.00000 0.00000
		CHANNELS 3 Zrotation Xrotation Yrotation
		JOINT LeftLeg
		{
			OFFSET 0.00000 -42.11800 0.00000
			CHANNELS 3 Zrotation Xrotation Yrotation
			JOINT LeftFoot
			{
				OFFSET 0.00000 -45.00070 0.00000
				CHANNELS 3 Zrotation Xrotation Yrotation
				JOINT LeftForeFoot
				{
					OFFSET 0.00000 -3.74824 0.00000
					CHANNELS 3 Zrotation Xrotation Yrotation
					JOINT LeftToeBase
					{
						OFFSET 0.00000 0.06325 14.43110
						CHANNELS 3 Zrotation Xrotation Yrotation
						End site
						{
							OFFSET 0.00000 0.00000 0.00000
						}
					}
				}
			}
		}
	}
}
MOTION
Frames: 4
Frame Time: 0.050000
0.009077762410120576 -0.048333925061430145 -0.03588556422831998 0.03892192356116137 -0.011431290988918083 -0.017619321346543333 2.34371162143693 1.048536441890994 -1.8466533389434974 -0.7542363998293821 3.328682663791776 0.37167668027324036 -0.9268869982239696 -1.6494163478079007 0.5520661730612129 -0.669291378849396 -0.3199696255136013 -0.37623312992221103 0.31747724051579385 13.082888828988661 -1.3392932050476487 0.545810348636846 0.5515796368880675 -3.5639484268572295 1.0377551776969518 -14.72737680945182 -0.26797982931204695 -9.648752890672569 3.431049350616317 -15.414870212219526 75.70429205681575 4.3396429847775035 22.051601687175275 41.82725820295864 9.940513795302216 94.29173040681756 18.102666398501388 -0.3630312061080453 -7.584562929421523 4.574698392646987 -0.09731515976087961 -1.546562804909379 -0.005343784041793466 0.000920521469659653 -56.25006625244879 -0.019504707945791237 0.0016626156161564036 -56.2170784895889 -38.799178018988314 0.015523453940839928 -0.03826334324960463 0.045950661570722154 -0.015359999922416044 0.016814653737631472 0.040823266827284974 0.005413796078640208 0.0004277071480388898 -36.69767684767642 0.026309067898072382 0.0009881355209006833 0.03431719234658507 -0.038832359367586125 -0.0358087590378974 -0.01583652723895551 0.014710876006328727 0.008342578590598414 -19.80486301545378 -0.03455186778089038 0.04934151068541025 -0.01006359592649291 0.039005135736471706 -0.005516276002492574 0.03867615709877424 0.0181442556077702 -0.010035162368593064 24.06564982203902 -0.014451145896835016 -0.011829378649320066 28.888003781282446 -0.027137283437335482 0.004254594414398062 28.910603595938664 -0.04846411574982985 0.009728487708833475 9.627199546411818 2.2671017222157985 13.237221523252863 -73.75392540047966 22.992826956610784 -19.714890375699216 -55.61536600856935 13.085868976178137 -95.94320156250687 -18.638187328016027 -8.364889996392822 6.498883793366116 -0.4707876766488709 0.044374441719826116 -8.114441292919425 -0.03151403398334214 -0.018960287524365523 44.605166512440405 0.01093013862875711 -0.01674979171213806 44.549965501273576 12.454613487611269 -0.02012248590935621 -0.0009090853187819916 -0.031036025152972848 0.025498092083611083 -0.002877689960393295 0.038119010577023174 0.006543834017694428 -0.01906591295215348 11.088243255960986 -0.02275688393679417 0.011664288511698833 0.027687301576780433 -0.030074872458954485 0.03606509606231987 -0.017647041028466776 0.004986615394050961 -0.021308497479438557 4.815986888851377 -0.007045036617983056 0.02053463864359947 0.03781696193439069 -0.04790137819133283 0.029256331955148318 0.022972461343002983 0.0012305143963893931 0.022565113612507695 -5.608280696671631 -0.01449533598494728 0.008966493334619192 -6.764157283743277 -0.039267769484842154 0.005277601370593709 -6.731028371632089 0.03181313522118526 -0.01776242428783438 0.036607097608277045 0.0037118432242066496 -0.0018483314240697638 8.019232718817204 3.474415894641918 -19.218971152960844 -0.007660293651064371 10.425388458888944 0.05308558841556972 -5.575948222793946 -15.644659722027217 3.196232201547367 0.008931757593547843 -0.026757490283544693 -0.009550974474109386 -0.04995765196148786 4.68490115114426 0.03414770388088362 12.411104457997538 -8.227581734902204 6.8698544185448815 -0.002759959713142191 46.383963146079886 -0.02560289684254886 -4.366770112227338 -14.747284704088493 -3.8007024024558023 0.010097349178955268 0.04767016872201316 0.0026844357132942915 0.047877861855734616 -10.74849091035086 0.027352649331686175 
0.03136097787781055 -0.03857922670009434 -0.006002083221814118 -0.02270815212605433 0.00016416828497176235 -0.035327433039574224 2.056319593084079 1.0235901245993884 -1.7512748288408306 -0.7782572090788705 3.416311969133453 0.4517008955369267 -0.9514146022759524 -1.661737862869781 0.7462363047938796 -0.7553909246295628 -0.30856857994175635 -0.3768984806763608 0.3822026813439512 13.263977992734482 -1.3871195114306105 0.5196642989208338 0.5759876979658921 -3.7965435738095947 1.1557862814070143 -14.695053581047313 -0.29372591516452945 -9.88903269376356 3.5196389949350775 -15.314407931850164 75.34451073773947 1.1690643958313747 24.151426262277564 41.758289704706215 9.583119036758143 95.28454768031285 17.5600168434847 -0.4051864616331545 -7.311680934867989 4.571853190560069 -0.07943340783301062 -1.6043111537511614 0.039437164107353165 -0.026230578882164863 -56.25212891799956 -0.03972809808886248 0.035863368257134924 -56.264276218781625 -38.76884327450922 -0.04596824800836092 -0.010041399320862149 0.023178727047339517 -0.03765825036926918 0.011806897083366078 -0.031168253317036564 0.023474396355667827 0.013425132652081284 -36.690090471197095 0.0033178425728787823 -0.01062484996005622 0.031104899589436078 0.0494405111158285 -0.022366940943949008 0.019758452570805284 0.03804272771874265 0.033145957949469146 -19.78733566662883 -0.039803509363780944 -0.019535656528232827 0.04408651972214489 0.00731916023215201 0.0017046811597494472 -0.042938601893145974 -0.02637347813878584 -0.028475977153200088 24.023438505512388 -0.01719800941940063 0.028158809713684032 28.877434851688736 0.0008225097208240144 -0.005792092405801717 28.825607428092187 -0.0023714289041834083 -0.00785815798484796 9.294999198665488 2.2336999305668255 13.146149005577444 -73.47610129800067 23.476113416438043 -18.98022609512147 -54.06928228765243 12.691477428662363 -95.85999225279286 -18.079390251880287 -7.8197641054911795 5.8984651289517265 -0.4426563657321855 0.07548632185156433 -8.159301417749235 0.04044209607092952 0.02500271676696803 44.58027982606426 0.020866475694309626 -0.044436337708174706 44.59699207230619 12.436193409833292 -0.0007883509204994754 -0.031707254615963305 -0.03291554284122755 0.030482733327819027 -0.043253140083211516 0.026650447044011927 -0.007240988933488255 -0.023788524296325667 11.151680843589025 0.005759667075288158 -0.028702403712834095 -0.018713404589381893 -0.027249578692695984 0.042443404816744315 0.005117873251988588 0.04669107973114385 0.017882027955679017 4.7696570645578324 0.015609029927426424 0.012047468811126628 0.009923329094603554 0.0455428246294837 0.007588105358970852 0.02347458968229749 -0.019699945848945053 0.030362417029030645 -5.601085859764049 -0.04739816017053106 -0.014955271595726554 -6.728524134191883 0.004236947635370077 0.0012438600744782038 -6.727909672149115 -0.04485560129132063 0.047674613093069945 -0.015859007960156084 0.037125409859062104 -0.007799817153992976 8.080147771861558 3.457582623902506 -19.228164460985745 0.030377567537011145 10.373794047923601 0.02704300255732292 -5.64658611100396 -15.665355029680939 3.150922951490097 0.019439413116862682 0.042139180168067725 0.04387875680787957 -0.04645695652332972 4.64838641716086 -0.018448001092445338 12.477823076440076 -8.228056937400215 6.864062650066177 -0.006709958882939438 46.37480387663114 0.008358158524408932 -4.291751862019348 -14.764829132841754 -3.8737224492607574 -0.04812716023547492 0.014706052389348008 -0.04930460022609548 0.007748004557600775 -10.734372161898524 0.04743526556607195 
-0.01517201447291834 -0.04046383175003666 -0.014153503301139528 0.01918722924595904 0.03283864216539365 -0.016927193216026457 1.7048395362029793 0.9206099854803861 -1.7154539264366226 -0.7996773866775961 3.416186923906831 0.42766387397952504 -1.0366159169052194 -1.6740846139063128 0.9382530962581745 -0.8135191618283573 -0.3799700733267148 -0.396327545106504 0.5001232396117167 13.37505382537643 -1.4160051651106553 0.5337204075798078 0.6387311782151599 -4.033308901096766 1.2082364383258115 -14.633648918378338 -0.35581634126802403 -10.123923837754022 3.5393515490236185 -15.257761447284873 75.03325947300286 -1.4390432743851413 26.492416131290607 40.81815154516643 9.31618887819172 96.41941842104994 16.9342335281479 -0.4426682692928823 -6.913783088320567 4.555030755364523 -0.15084731561269504 -1.6017157047553872 0.042745272718476585 0.021974546703255583 -56.233655015167415 0.001800068369358109 -0.002477727159222118 -56.192430158198626 -38.77234950380284 0.007204215805477348 -0.046207512262914995 0.011560728170868884 0.010003582908841019 0.03314391217555529 -0.031756635129977125 -0.013068766161213153 -0.016701810905882807 -36.67757327310074 -0.048516071447076606 0.017559253914056123 -0.03497670470241091 -0.01808527073379778 -0.006667005182034642 0.0332199864060922 0.011048193247283303 -0.021012579765769507 -19.741626900359197 0.003730347811431694 0.030080041343508584 -0.028491537675744232 -0.02554869820325462 0.0037689571835561675 -0.027695997751821914 0.01749465607796015 0.032973588537312346 24.089677614432503 0.02351793500897741 0.03599567366392081 28.82646123708279 -0.045861783010073744 -0.023969808445261837 28.875631189109168 -0.04743838637106797 0.029140750306271127 9.131154424644551 2.1885234773775983 13.169761463501198 -73.17142811526021 24.126272092869762 -18.342782756357803 -51.1267092426335 12.241412823666385 -95.86586503956731 -17.56610082311731 -7.456314333844205 5.507324354221027 -0.5144930318640563 0.09756713469991223 -8.083537412828548 -0.026874479193479812 0.01726075009183083 44.528427242807076 -0.04752742746303889 0.008295979386463028 44.55280353273861 12.484677228889138 0.013255423969689694 0.005200376941557171 0.02192164913229659 -0.019117594100720704 -0.01139008215873919 0.02848097350952813 -0.036033579972371554 -0.004968676383359916 11.075957461757119 -0.04594390785636214 0.04986658019319083 -0.04515012510215595 -0.005088635626942969 -0.018605706484652495 0.030390830591690506 -0.04569597528158808 -0.007374962941239193 4.76278925845211 -0.027015352960994266 -0.015066222880770731 -0.010937750129304572 0.03161163711463343 0.003926123574380301 0.04604494078196445 0.014955210985367244 0.033812656960406244 -5.625841811830974 -0.009334367887825702 -0.033151667098850916 -6.72311049513062 -0.0390650650830886 -0.0474207168415709 -6.735712129041566 0.034230907427731584 -0.0028601028904314263 -0.036960811151896276 0.014315123447629256 -0.04617373086373521 8.022278584552893 3.4523704790533127 -19.21136153221895 -0.04909587775859795 10.406710883514465 -0.02225384738681713 -5.5917191633242265 -15.67948968335106 3.1803023254897025 0.01812532676883423 -0.007916607768416514 0.010816846687378054 0.02802871030142581 4.703471514863156 -0.04680035184418498 12.47543658643988 -8.243594983643076 6.906684325194612 0.011764020570585239 46.38886062478939 0.014339049233207203 -4.349116690545246 -14.738006905838283 -3.8226407373757785 0.03566787696992765 -0.0391795173332733 -0.02295822144357388 -0.02334750863023781 -10.760458948497327 0.042187169186616226 
-0.008980486844129939 0.016255586468998075 -0.011559101047102668 -0.03652380220974157 0.04905668827504791 0.03146993750174113 1.6480017493119103 0.8752771735553014 -1.6802302022923834 -0.7992610630568361 3.408887364574193 0.3621378361501659 -1.054152936709195 -1.7711731794681003 1.0464997650555528 -0.90229470962486 -0.346092400865823 -0.35799552717501276 0.5748840370854178 13.506191159689022 -1.3695107720684183 0.6144955009378511 0.690675730783325 -3.9428738505335423 1.188275837796526 -14.544578958729975 -0.324560996632771 -10.287192656725386 3.625239951417924 -15.098846930825303 75.15818552412779 -2.719780125808056 28.41688283824024 40.29829082636955 9.323013444261944 98.11726159819274 16.456683150187132 -0.5562229977662104 -6.772217985282189 4.553831307143871 -0.1498900544943666 -1.5713016786381764 -0.03438502182200012 0.04766863742838737 -56.215753634550545 0.00442100934122791 0.025016756316000394 -56.19108431831721 -38.81356016021709 -0.04561894543274063 -0.0427854863265264 -0.01595602081318929 0.017573174286024607 -0.017605181124282762 0.002747894341056859 0.031168251503799926 -0.03908045489140095 -36.66169933545054 -0.028849988124230654 -0.000552332864369343 0.029794894143309224 0.028184448665588994 -0.0423594561086414 0.038671852182288934 0.0005061818887699286 -0.007870153052889859 -19.743694147336186 0.026567751323541958 0.04869658215531931 0.0110929949238494 0.032790212685774214 0.022645062376090538 0.026549345284491783 -0.02298078889529745 0.02721419060934509 24.0591157379984 -0.003432007171555827 -0.044672940394105694 28.860071434040197 0.040920321428756706 0.038122414455567424 28.87100691722195 -0.03181548594676305 0.010480426270583428 9.124589544713968 2.1825122610307517 13.180778642642409 -73.09314125253343 24.704261949393928 -18.287445882055966 -49.46502411860205 12.30933585322728 -97.05938857237255 -17.39445190183147 -7.433398297535116 5.34797465210694 -0.5149817735701123 0.044216783037270266 -8.121396304867998 -0.007531462392410212 -0.0037909414069512244 44.603362710383294 -0.044252812921046276 -0.0025687640566269014 44.55323700818289 12.477856632207125 0.004052352184791674 0.010751676631375476 -0.0048089581917966145 0.007362474201791897 -0.021735456999782278 -0.023737529814897827 -0.03344417857274521 -0.043578873617831304 11.05659568330494 0.006945826503407451 0.03743918584561961 -0.002849899886003689 -0.028424217643171747 0.03627626824111203 -0.037551505475228064 0.03332229695692453 -0.04115838821332829 4.809942513429179 0.023214770980952197 0.01935221031493908 -0.0005832221880595146 0.019451084064746448 0.012129823581289308 0.012944079292923181 -0.012586884882625554 -0.033561522648036135 -5.6448156644872824 -0.041132310411875525 0.0011621907525555001 -6.696086191531145 0.009084261964161436 -0.03072860405076359 -6.702185819954592 -0.03863118958822366 -0.006346109581966122 0.0038420792376428403 0.017923791857167193 0.032083220119358186 8.030104145937925 3.518215983755904 -19.230250665092658 -0.026403677801029535 10.354941028898006 -0.015003360711808512 -5.598216510384867 -15.679364641681971 3.2092548499628957 -0.03010982089825309 0.003664651649597579 0.044775668308096116 -0.032507016522030384 4.724051090796158 0.022311075808615546 12.475848911670234 -8.241335835458349 6.846276773722647 -0.028860910260996367 46.428916051274555 0.014302425126102006 -4.31725231278236 -14.72360878723168 -3.869390808515408 -0.017555104978947363 0.0034954488820454353 -0.035471332113929686 -0.04486908374298925 -10.772101708454128 -0.00036492719300575756 
